# xmcd CD database file
# Copyright (C) 1993-1998 Ti Kan
#
# Track frame offsets:
#  150
#  13198
#  26365
#  36410
#  47923
#  60040
#  72063
#  85415
#  100000
#  111083
#  123158
#  134775
#
# Disc length: 1962 seconds
#
# Revision: 1
# Processed by: cddbd v1.4b41PL1 Copyright (c) Steve Scherf et al.
# Submitted via: CDWizzard Release:4.32
#
DISCID=9b07a80c
DTITLE=Webb Pierce - The One and Onl y Webb Pierce
DYEAR=1900
DGENRE=
TTITLE0=New Panhandle Rag
TTITLE1=Jilted Love
TTITLE2=Heebie Jeebie Blues
TTITLE3=Jinx in Love
TTITLE4=High Geared Daddy
TTITLE5=I'm Happy That You Hurt Me
TTITLE6=Geogia Rag
TTITLE7=It's All Between the Lines
TTITLE8=Lucky Lee
TTITLE9=Sweet Heart You Know I Love You So
TTITLE10=English Sweetheart
TTITLE11=The Darkest Hour
EXTD=
EXTT0=Webb Pierce
EXTT1=Webb Pierce
EXTT2=Webb Pierce
EXTT3=Webb Pierce
EXTT4=Webb Pierce
EXTT5=Webb Pierce
EXTT6=Webb Pierce
EXTT7=Webb Pierce
EXTT8=Webb Pierce
EXTT9=Webb Pierce
EXTT10=Webb Pierce
EXTT11=Webb Pierce
PLAYORDER=
